HIERARCHY
ROOT Hips
{
	OFFSET -0.001795 -0.223333 0.028219
	CHANNELS 6 Xposition Yposition Zposition Zrotation Yrotation Xrotation 
	JOINT LeftUpLeg
	{
		OFFSET 0.069520 -0.091406 -0.006815
		CHANNELS 3 Zrotation Yrotation Xrotation
		JOINT LeftLeg
		{
			OFFSET 0.034277 -0.375199 -0.004496
			CHANNELS 3 Zrotation Yrotation Xrotation
			JOINT LeftFoot
			{
				OFFSET -0.013596 -0.397961 -0.043693
				CHANNELS 3 Zrotation Yrotation Xrotation
				JOINT LeftToe
				{
					OFFSET 0.026358 -0.055791 0.119288
					CHANNELS 3 Zrotation Yrotation Xrotation
					End Site
					{
						OFFSET 0.000000 0.000000 0.000000
					}
				}
			}
		}
	}
	JOINT RightUpLeg
	{
		OFFSET -0.067670 -0.090522 -0.004320
		CHANNELS 3 Zrotation Yrotation Xrotation
		JOINT RightLeg
		{
			OFFSET -0.038290 -0.382569 -0.008850
			CHANNELS 3 Zrotation Yrotation Xrotation
			JOINT RightFoot
			{
				OFFSET 0.015774 -0.398415 -0.042312
				CHANNELS 3 Zrotation Yrotation Xrotation
				JOINT RightToe
				{
					OFFSET -0.025372 -0.048144 0.123348
					CHANNELS 3 Zrotation Yrotation Xrotation
					End Site
					{
						OFFSET 0.000000 0.000000 0.000000
					}
				}
			}
		}
	}
	JOINT Spine
	{
		OFFSET -0.002533 0.108963 -0.026696
		CHANNELS 3 Zrotation Yrotation Xrotation
		JOINT Spine1
		{
			OFFSET 0.005487 0.135180 0.001092
			CHANNELS 3 Zrotation Yrotation Xrotation
			JOINT Spine2
			{
				OFFSET 0.001457 0.052922 0.025425
				CHANNELS 3 Zrotation Yrotation Xrotation
				JOINT Neck
				{
					OFFSET -0.002778 0.213870 -0.042857
					CHANNELS 3 Zrotation Yrotation Xrotation
					JOINT Head
					{
						OFFSET 0.005152 0.064970 0.051349
						CHANNELS 3 Zrotation Yrotation Xrotation
						End Site
						{
							OFFSET 0.000000 0.000000 0.000000
						}
					}
				}
				JOINT LeftShoulder
				{
					OFFSET 0.078845 0.121749 -0.034090
					CHANNELS 3 Zrotation Yrotation Xrotation
					JOINT LeftArm
					{
						OFFSET 0.090977 0.030469 -0.008868
						CHANNELS 3 Zrotation Yrotation Xrotation
						JOINT LeftForeArm
						{
							OFFSET 0.259612 -0.012772 -0.027456
							CHANNELS 3 Zrotation Yrotation Xrotation
							JOINT LeftHand
							{
								OFFSET 0.249234 0.008986 -0.001171
								CHANNELS 3 Zrotation Yrotation Xrotation
								End Site
								{
									OFFSET 0.000000 0.000000 0.000000
								}
							}
						}
					}
				}
				JOINT RightShoulder
				{
					OFFSET -0.081759 0.118833 -0.038615
					CHANNELS 3 Zrotation Yrotation Xrotation
					JOINT RightArm
					{
						OFFSET -0.096012 0.032551 -0.009143
						CHANNELS 3 Zrotation Yrotation Xrotation
						JOINT RightForeArm
						{
							OFFSET -0.253742 -0.013329 -0.021401
							CHANNELS 3 Zrotation Yrotation Xrotation
							JOINT RightHand
							{
								OFFSET -0.255298 0.007772 -0.005559
								CHANNELS 3 Zrotation Yrotation Xrotation
								End Site
								{
									OFFSET 0.000000 0.000000 0.000000
								}
							}
						}
					}
				}
			}
		}
	}
}
MOTION
Frames: 15
Frame Time: 0.050000
0.000000 0.935738 0.000000 -0.777506 7.838090 6.444254 -0.336918 0.078126 0.666834 0.311596 0.237342 -8.371319 -3.997370 -6.846487 2.353231 0.000000 0.000000 0.000000 2.783212 -0.042186 -0.229983 -1.021815 -0.096767 -4.411195 2.605157 6.979966 -0.278226 0.000000 0.000000 0.000000 1.681423 0.190912 -4.987256 1.399287 -0.808606 1.842609 -2.511150 1.410864 4.519682 2.727409 0.667273 -21.215227 0.000000 0.000000 0.000000 -26.516838 -9.754593 1.111612 -24.460416 7.042397 -3.420903 14.228881 -12.111893 -1.133679 0.000000 0.000000 0.000000 25.085803 6.952971 4.001047 34.868071 -6.006457 -5.276917 -10.864255 18.569441 -0.793087 0.000000 0.000000 0.000000 
-0.000205 0.934900 0.002043 -0.992588 8.281586 6.996877 0.224867 0.027626 0.377950 -0.806688 0.260015 -8.766212 -3.700121 -5.800204 2.953257 0.000000 0.000000 0.000000 2.544325 0.089979 -1.223180 -0.134314 -0.162823 -4.323956 2.694675 7.482836 -0.734422 0.000000 0.000000 0.000000 2.378784 0.200289 -5.186021 0.621729 -0.475495 2.509960 -2.490893 2.321856 3.767286 2.727864 1.036656 -23.612813 0.000000 0.000000 0.000000 -24.793097 -10.932685 1.525617 -26.716944 8.042789 -3.859481 15.236618 -10.305304 -1.095037 0.000000 0.000000 0.000000 26.602851 4.288621 2.742126 34.589301 -5.931362 -5.299805 -12.514431 19.563731 -1.034958 0.000000 0.000000 0.000000 
-0.000835 0.933512 0.003923 -1.201820 8.770903 7.317920 0.827472 -0.024313 0.097119 -1.052027 0.250928 -8.143210 -3.819483 -6.347097 2.498960 0.000000 0.000000 0.000000 2.517827 0.077121 -1.114713 0.596635 -0.239177 -4.743468 2.394366 7.392848 -1.966048 0.000000 0.000000 0.000000 3.164470 0.219123 -5.518062 0.338822 -0.197964 0.303343 -2.843594 2.252831 5.921523 2.864537 0.982628 -23.438257 0.000000 0.000000 0.000000 -23.769939 -11.225893 1.742592 -28.014331 9.012374 -4.358307 15.187828 -11.324515 -1.208615 0.000000 0.000000 0.000000 26.849044 6.027940 4.113065 35.334954 -7.402294 -5.933913 -12.854706 19.315012 -1.067006 0.000000 0.000000 0.000000 
-0.002248 0.932355 0.005702 -1.308200 9.313549 7.460730 1.348635 -0.071065 -0.176288 -1.234225 0.238978 -7.219025 -3.412820 -6.211166 1.481810 0.000000 0.000000 0.000000 2.549447 0.059969 -0.967675 1.178055 -0.295969 -5.002713 2.603734 8.318631 -2.558423 0.000000 0.000000 0.000000 3.225921 0.217219 -5.554852 0.150061 -0.146897 0.880068 -2.512065 2.918626 5.023819 2.017009 1.576686 -24.037359 0.000000 0.000000 0.000000 -25.709306 -11.698078 1.482518 -27.070557 10.362502 -4.287048 16.336174 -11.713219 -1.388622 0.000000 0.000000 0.000000 27.857783 6.145284 4.549186 34.717362 -8.646912 -6.141191 -12.889567 18.640393 -1.022675 0.000000 0.000000 0.000000 
-0.004579 0.931824 0.006841 -1.115418 9.899927 7.081874 1.470464 -0.055277 0.132845 -1.019219 0.217284 -6.274080 -3.324687 -6.526381 0.774789 0.000000 0.000000 0.000000 2.582682 -0.020432 -0.305146 1.341911 -0.327939 -5.495049 2.124969 7.191581 -2.967565 0.000000 0.000000 0.000000 3.274136 0.191913 -5.079723 0.312831 -0.230929 0.925907 -3.163127 3.057230 4.735100 2.615938 1.267581 -23.255444 0.000000 0.000000 0.000000 -26.748121 -12.270803 1.478316 -25.989650 10.494177 -4.018869 15.744911 -13.273529 -1.502357 0.000000 0.000000 0.000000 28.335250 6.114855 4.788187 34.738810 -8.059873 -6.058672 -12.170513 17.892597 -0.870503 0.000000 0.000000 0.000000 
-0.007759 0.930910 0.007266 -1.075963 9.673348 6.573803 1.457864 -0.098702 -0.519593 -0.838812 0.167251 -3.834029 -2.209491 -5.886086 -1.617811 0.000000 0.000000 0.000000 2.288280 -0.125351 0.586469 1.895290 -0.367956 -5.425788 2.118517 7.589783 -3.635801 0.000000 0.000000 0.000000 3.665946 0.143505 -4.130632 0.017442 -0.141561 1.775207 -3.155090 2.841988 4.083478 1.616552 1.777328 -23.802881 0.000000 0.000000 0.000000 -27.986593 -12.073291 1.392584 -26.315859 9.517283 -3.886842 15.600668 -15.286350 -1.693878 0.000000 0.000000 0.000000 28.128168 7.217669 5.316372 34.871979 -7.340082 -5.828694 -11.374728 17.087025 -0.742835 0.000000 0.000000 0.000000 
-0.011276 0.930114 0.007132 -1.066862 8.935375 6.332100 1.902585 -0.236936 -2.268219 -1.209897 0.093626 0.443401 -0.884546 -4.723600 -4.147895 0.000000 0.000000 0.000000 2.855139 -0.204762 1.019043 1.451249 -0.368821 -6.519574 2.143875 7.922561 -3.970076 0.000000 0.000000 0.000000 4.358780 0.081521 -3.162392 -0.247863 -0.007079 1.822031 -3.994884 3.427737 4.062898 2.235072 1.503874 -23.697704 0.000000 0.000000 0.000000 -28.601212 -12.780324 1.627499 -27.080355 8.243589 -3.723831 15.557081 -17.230814 -1.918041 0.000000 0.000000 0.000000 28.276782 8.022132 6.047703 35.409714 -6.122421 -5.672403 -10.252037 17.584779 -0.631916 0.000000 0.000000 0.000000 
-0.014174 0.929540 0.006676 -1.373605 7.767941 5.550898 2.619961 -0.446653 -5.189766 -1.913292 -0.045895 8.377841 0.878353 -3.176515 -8.069625 0.000000 0.000000 0.000000 3.481959 -0.271075 1.315391 0.944925 -0.301322 -5.712629 2.584010 10.017685 -4.993995 0.000000 0.000000 0.000000 5.092363 -0.026386 -1.679504 -1.025541 0.379535 1.939500 -3.752548 2.951907 4.259274 1.939293 1.539337 -23.938192 0.000000 0.000000 0.000000 -29.781983 -13.092044 2.287196 -27.355484 6.389521 -3.525039 15.026248 -19.567798 -2.040139 0.000000 0.000000 0.000000 28.392654 9.147300 6.353251 35.226003 -5.168055 -5.329762 -8.907487 17.740663 -0.499551 0.000000 0.000000 0.000000 
-0.015718 0.928528 0.007331 -1.545710 6.769062 5.031581 3.551138 -0.706896 -9.369826 -2.629911 -0.195793 17.565438 1.649227 -2.216101 -9.803316 0.000000 0.000000 0.000000 3.705396 -0.350372 1.805475 1.060944 -0.297069 -5.448958 2.796423 11.790474 -6.306401 0.000000 0.000000 0.000000 5.299347 -0.133890 -0.306042 -0.976979 0.343314 2.479506 -4.056951 3.041563 4.241285 2.472501 1.278065 -24.440944 0.000000 0.000000 0.000000 -30.206595 -14.755821 3.556421 -29.172961 4.707904 -3.483139 16.470599 -21.368366 -2.507047 0.000000 0.000000 0.000000 28.483332 10.234071 6.948577 35.217111 -3.617002 -4.923189 -8.270593 18.035378 -0.439941 0.000000 0.000000 0.000000 
-0.015273 0.926899 0.010112 -1.884385 6.218904 4.569941 4.389624 -0.943931 -13.850182 -2.607647 -0.515023 25.928233 1.872014 -1.450684 -9.777767 0.000000 0.000000 0.000000 4.042661 -0.464930 2.502305 0.978455 -0.258322 -4.547674 2.805933 12.886922 -7.462046 0.000000 0.000000 0.000000 5.735728 -0.185376 0.236911 -1.189491 0.431771 3.092216 -3.777733 2.107427 4.655312 2.495218 1.092209 -24.271001 0.000000 0.000000 0.000000 -30.697073 -15.264107 4.524446 -29.714280 2.361071 -3.226016 16.107177 -23.045177 -2.577975 0.000000 0.000000 0.000000 28.147865 11.771411 7.413724 35.501915 -3.323294 -4.778245 -8.049483 17.676268 -0.425878 0.000000 0.000000 0.000000 
-0.012794 0.925529 0.015399 -2.309536 4.200732 5.050279 5.592922 -1.053972 -18.462708 -4.238852 0.076728 32.614220 2.364123 0.255026 -9.783354 0.000000 0.000000 0.000000 3.563190 -0.306141 1.441838 1.966952 -0.284659 -2.835146 3.164896 14.537601 -7.688384 0.000000 0.000000 0.000000 6.145442 -0.214720 0.327881 -1.802963 0.773020 2.813811 -3.166981 2.523146 4.549413 2.520242 1.060086 -25.017406 0.000000 0.000000 0.000000 -32.426168 -15.980183 5.384114 -29.439873 2.845089 -3.351397 16.019193 -27.250675 -3.003307 0.000000 0.000000 0.000000 27.902741 11.359864 6.818432 35.437860 -3.274229 -4.684077 -7.399273 17.939972 -0.354215 0.000000 0.000000 0.000000 
-0.008614 0.924704 0.023818 -2.631621 2.321827 5.033012 7.197771 -0.882239 -21.306816 -5.578514 0.881960 35.194207 2.853805 1.923903 -9.661337 0.000000 0.000000 0.000000 2.809554 -0.222859 1.003856 2.403419 -0.279922 -1.024490 3.461384 16.240786 -8.137405 0.000000 0.000000 0.000000 6.437502 -0.276733 0.918032 -1.980199 0.885288 2.890931 -2.673700 1.984973 4.068382 1.515852 1.309901 -24.235591 0.000000 0.000000 0.000000 -33.551963 -15.852598 6.075564 -29.431218 2.213817 -3.359364 15.434514 -29.175366 -3.001265 0.000000 0.000000 0.000000 28.457117 11.796132 6.505897 34.834649 -4.167332 -4.648810 -7.590813 19.300901 -0.446547 0.000000 0.000000 0.000000 
-0.003037 0.925591 0.034613 -2.775287 0.342529 5.016217 8.924311 -0.530170 -22.975253 -5.321557 1.032971 33.023302 3.511972 4.102532 -9.282479 0.000000 0.000000 0.000000 2.555410 -0.222494 1.026725 1.707050 -0.175809 0.085867 4.223635 17.912175 -7.161695 0.000000 0.000000 0.000000 5.814042 -0.322323 1.724121 -1.438154 0.657599 1.489771 -2.286094 1.574005 4.689954 0.658267 1.598522 -24.715073 0.000000 0.000000 0.000000 -33.859559 -15.016981 6.253192 -29.301499 1.696247 -3.438192 13.451163 -30.121872 -2.505054 0.000000 0.000000 0.000000 27.824827 12.676840 6.459321 35.295839 -5.326033 -4.880745 -7.503464 19.206577 -0.457266 0.000000 0.000000 0.000000 
0.004239 0.924348 0.047833 -3.510157 -2.156884 5.337860 10.678469 -0.049940 -23.327371 -4.038232 0.715210 26.988001 3.239362 3.935470 -8.687201 0.000000 0.000000 0.000000 2.677794 -0.209727 0.777793 1.284884 -0.096051 1.049519 4.832160 20.363828 -7.293520 0.000000 0.000000 0.000000 5.476114 -0.306019 1.703417 -1.383330 0.647916 1.532196 -1.843400 1.220873 4.683388 -0.682404 1.991419 -23.302029 0.000000 0.000000 0.000000 -33.164451 -15.131223 7.168668 -29.961686 0.779837 -3.537396 12.784362 -29.618505 -2.215856 0.000000 0.000000 0.000000 27.555327 12.431524 5.568566 35.827646 -6.258567 -5.017520 -6.745674 19.880338 -0.396426 0.000000 0.000000 0.000000 
0.013491 0.920999 0.063547 -4.148535 -3.404252 5.373365 12.130643 0.310465 -22.976452 -2.064755 0.095237 19.516432 1.256262 -0.000701 -6.464710 0.000000 0.000000 0.000000 2.446154 -0.270833 1.343885 1.207612 -0.066943 1.603993 4.805659 21.297820 -7.954902 0.000000 0.000000 0.000000 4.929253 -0.377130 2.844100 -1.112228 0.527069 0.607949 -1.613722 0.403756 4.907394 -1.026042 1.999267 -23.499224 0.000000 0.000000 0.000000 -33.322615 -15.405743 8.160521 -29.134407 -0.166320 -3.434927 12.747212 -27.360747 -1.975593 0.000000 0.000000 0.000000 27.711927 11.411040 4.267013 36.435928 -8.797586 -5.624067 -5.949974 20.520767 -0.323746 0.000000 0.000000 0.000000 
